<?xml version="1.0" encoding="utf-8"?>
<!-- Generator: Adobe Illustrator 23.0.3, SVG Export Plug-In . SVG Version: 6.00 Build 0)  -->
<svg version="1.1" xmlns="http://www.w3.org/2000/svg" xmlns:xlink="http://www.w3.org/1999/xlink" x="0px" y="0px"
	 viewBox="320 320 140 280" style="enable-background:new 0 0 595.28 841.89;" xml:space="preserve" width="100" height="100">
<style type="text/css">
	.st0{fill:none;stroke:#000000;stroke-miterlimit:10;}
	.st1{fill:none;}
	.st2{stroke:#000000;stroke-miterlimit:10;}
	.st3{fill:url(#SVGID_1_);}
	.st4{fill:url(#SVGID_2_);}
</style>
<g id="katman_1">
	<g>
		<g>
			<g>
				
					<linearGradient id="SVGID_1_" gradientUnits="userSpaceOnUse" x1="342.5033" y1="371.1891" x2="408.6382" y2="371.1891" gradientTransform="matrix(0.9958 0.0919 -0.0919 0.9958 35.6907 -24.001)">
					<stop  offset="0" style="stop-color:#C7A039"/>
					<stop  offset="0" style="stop-color:#8F6800"/>
					<stop  offset="0" style="stop-color:#896201"/>
					<stop  offset="0.1145" style="stop-color:#966F07"/>
					<stop  offset="0.3659" style="stop-color:#C49D36"/>
					<stop  offset="0.6602" style="stop-color:#956F09"/>
					<stop  offset="0.7402" style="stop-color:#9A740D"/>
					<stop  offset="0.757" style="stop-color:#956F0A"/>
					<stop  offset="0.8128" style="stop-color:#896201"/>
					<stop  offset="1" style="stop-color:#8B6403"/>
					<stop  offset="1" style="stop-color:#D1AA42"/>
					<stop  offset="1" style="stop-color:#BB952E"/>
					<stop  offset="1" style="stop-color:#C7A039"/>
					<stop  offset="1" style="stop-color:#FEFEA2"/>
				</linearGradient>
				<path class="st3" d="M369.09,355.16l9.14,8.69c0,0,0.66,1.44-0.74,0.82l-7.36-5.98l-1.69-1.53c0,0-1.3-1.37-2.41,0.11
					l-5.03,4.78l-4.67,4.42l-4.27,3.95l-4.77,4.32l-4.47,3.88c0,0-0.93,0.9,0.05,2.05c0.99,1.16,6.17,6.5,6.17,6.5l0.83,0.84
					l3.07-2.87l3.47-3.31l9.41-11.67c0,0,3.01-1.04,2.7,2.26l-11.36,9.97l-6.81,6.33l6.76,7.42l12.2-11.25l13.98-14.73
					c0,0,1.15-1.92,2.13,0.6c0,0,0.05,1.19-0.13,1.38c-0.18,0.19-1.72,1.54-1.72,1.54l-13.89,12.11l-3.09,3.09l-8.82,7.95
					l16.52,16.25c0,0,0.93,0.46,1.61-0.45l32.59-32.91c0,0,1.08-1.19-0.22-2.29l-6.99-6.69l-1.86,1.45l-12.72,12.8l-9.86,10.42
					c0,0-1.3,1.77-2.12,0.72c0,0-1.92-0.99-0.37-2.84l18.29-16.65l6.66-6.07c0,0,1.16-0.54,0.55-1.32l-16.88-16.36l-5.44-5.38
					c0,0-0.6-0.76-1.36-0.13l-6.81,6.6c0,0-0.87,0.59-0.42,1.04S369.09,355.16,369.09,355.16z"/>
			</g>
		</g>
		<linearGradient id="SVGID_2_" gradientUnits="userSpaceOnUse" x1="275.3144" y1="442.7881" x2="462.0981" y2="460.0208">
			<stop  offset="0" style="stop-color:#C7A039"/>
			<stop  offset="0" style="stop-color:#8F6800"/>
			<stop  offset="0" style="stop-color:#896201"/>
			<stop  offset="0.1145" style="stop-color:#966F07"/>
			<stop  offset="0.3659" style="stop-color:#C49D36"/>
			<stop  offset="0.6602" style="stop-color:#956F09"/>
			<stop  offset="0.7402" style="stop-color:#9A740D"/>
			<stop  offset="0.757" style="stop-color:#956F0A"/>
			<stop  offset="0.8128" style="stop-color:#896201"/>
			<stop  offset="1" style="stop-color:#8B6403"/>
			<stop  offset="1" style="stop-color:#D1AA42"/>
			<stop  offset="1" style="stop-color:#BB952E"/>
			<stop  offset="1" style="stop-color:#C7A039"/>
			<stop  offset="1" style="stop-color:#FEFEA2"/>
		</linearGradient>
		<polygon class="st4" points="283.41,355.08 300.81,355.08 376.67,433.14 453.71,355.08 471.78,355.08 385.21,443.11 
			385.21,557.27 368.97,557.27 368.97,443.11 		"/>
	</g>
</g>
<g id="katman_2">
</g>
</svg>
